

<svg
  class="curve"
  width="1000"
  height="280"
  viewBox="-0 -240 1000 280"
  xmlns="http://www.w3.org/2000/svg"
>
    <style type="text/css">
    @import url(&#039;https://fonts.googleapis.com/css?family=Ubuntu|Ubuntu+Mono&amp;display=swap&#039;);

svg text {
  font-family: &#039;Ubuntu&#039;, monospace;
}

svg.curve .curve {
  stroke: none;
  opacity: 1;
}

svg.curve .curve:nth-of-type(1) { fill: #FFCDB2; }
svg.curve .curve:nth-of-type(2) { fill: #FFB4A2; }
svg.curve .curve:nth-of-type(3) { fill: #E5989B; }

svg.curve .axe {
  stroke: #6D6875;
  stroke-width: 0.6;
}

svg.curve .legend {
  font-size: 16px;
  fill: #6D6875;
}

  </style>
        <path class="curve" d="        M 23.809523809524 0
    L 23.809523809524 -114.41441441441
        L 71.428571428571 -109.90990990991
        L 119.04761904762 -111.71171171171
        L 166.66666666667 -121.62162162162
        L 214.28571428571 -136.03603603604
        L 261.90476190476 -147.74774774775
        L 309.52380952381 -133.33333333333
        L 357.14285714286 -131.53153153153
        L 404.7619047619 -118.91891891892
        L 452.38095238095 -114.41441441441
        L 500 -102.7027027027
        L 547.61904761905 -88.288288288288
        L 595.2380952381 -100.9009009009
        L 642.85714285714 -121.62162162162
        L 690.47619047619 -140.54054054054
        L 738.09523809524 -200
        L 785.71428571429 -178.37837837838
        L 833.33333333333 -104.5045045045
        L 880.95238095238 -86.486486486486
        L 928.57142857143 -82.882882882883
        L 976.19047619048 -97.297297297297
      L 976.19047619048 0 Z
  " />

      <path class="curve" d="        M 23.809523809524 0
    L 23.809523809524 -82.882882882883
        L 71.428571428571 -88.288288288288
        L 119.04761904762 -100.9009009009
        L 166.66666666667 -115.31531531532
        L 214.28571428571 -118.91891891892
        L 261.90476190476 -124.32432432432
        L 309.52380952381 -111.71171171171
        L 357.14285714286 -101.8018018018
        L 404.7619047619 -90.990990990991
        L 452.38095238095 -96.396396396396
        L 500 -74.774774774775
        L 547.61904761905 -59.459459459459
        L 595.2380952381 -64.864864864865
        L 642.85714285714 -91.891891891892
        L 690.47619047619 -111.71171171171
        L 738.09523809524 -133.33333333333
        L 785.71428571429 -122.52252252252
        L 833.33333333333 -88.288288288288
        L 880.95238095238 -65.765765765766
        L 928.57142857143 -60.36036036036
        L 976.19047619048 -50.45045045045
      L 976.19047619048 0 Z
  " />

      <path class="curve" d="        M 23.809523809524 0
    L 23.809523809524 -54.954954954955
        L 71.428571428571 -71.171171171171
        L 119.04761904762 -80.18018018018
        L 166.66666666667 -83.783783783784
        L 214.28571428571 -99.099099099099
        L 261.90476190476 -97.297297297297
        L 309.52380952381 -80.18018018018
        L 357.14285714286 -86.486486486486
        L 404.7619047619 -72.072072072072
        L 452.38095238095 -86.486486486486
        L 500 -60.36036036036
        L 547.61904761905 -45.945945945946
        L 595.2380952381 -49.54954954955
        L 642.85714285714 -69.369369369369
        L 690.47619047619 -95.495495495496
        L 738.09523809524 -112.61261261261
        L 785.71428571429 -106.30630630631
        L 833.33333333333 -56.756756756757
        L 880.95238095238 -38.738738738739
        L 928.57142857143 -49.54954954955
        L 976.19047619048 -20.720720720721
      L 976.19047619048 0 Z
  " />

    <line class="axe" x1="-0%" x2="100%" y1="0" y2="0" />
                  <text class="legend" x="23.809523809524" y="30" text-anchor="middle">
    1999
  </text>

        <line class="axe" x1="23.809523809524" x2="23.809523809524" y1="0" y2="5" />
              <line class="axe" x1="71.428571428571" x2="71.428571428571" y1="0" y2="5" />
                  <text class="legend" x="119.04761904762" y="30" text-anchor="middle">
    2001
  </text>

        <line class="axe" x1="119.04761904762" x2="119.04761904762" y1="0" y2="5" />
              <line class="axe" x1="166.66666666667" x2="166.66666666667" y1="0" y2="5" />
                  <text class="legend" x="214.28571428571" y="30" text-anchor="middle">
    2003
  </text>

        <line class="axe" x1="214.28571428571" x2="214.28571428571" y1="0" y2="5" />
              <line class="axe" x1="261.90476190476" x2="261.90476190476" y1="0" y2="5" />
                  <text class="legend" x="309.52380952381" y="30" text-anchor="middle">
    2005
  </text>

        <line class="axe" x1="309.52380952381" x2="309.52380952381" y1="0" y2="5" />
              <line class="axe" x1="357.14285714286" x2="357.14285714286" y1="0" y2="5" />
                  <text class="legend" x="404.7619047619" y="30" text-anchor="middle">
    2007
  </text>

        <line class="axe" x1="404.7619047619" x2="404.7619047619" y1="0" y2="5" />
              <line class="axe" x1="452.38095238095" x2="452.38095238095" y1="0" y2="5" />
                  <text class="legend" x="500" y="30" text-anchor="middle">
    2009
  </text>

        <line class="axe" x1="500" x2="500" y1="0" y2="5" />
              <line class="axe" x1="547.61904761905" x2="547.61904761905" y1="0" y2="5" />
                  <text class="legend" x="595.2380952381" y="30" text-anchor="middle">
    2011
  </text>

        <line class="axe" x1="595.2380952381" x2="595.2380952381" y1="0" y2="5" />
              <line class="axe" x1="642.85714285714" x2="642.85714285714" y1="0" y2="5" />
                  <text class="legend" x="690.47619047619" y="30" text-anchor="middle">
    2013
  </text>

        <line class="axe" x1="690.47619047619" x2="690.47619047619" y1="0" y2="5" />
              <line class="axe" x1="738.09523809524" x2="738.09523809524" y1="0" y2="5" />
                  <text class="legend" x="785.71428571429" y="30" text-anchor="middle">
    2015
  </text>

        <line class="axe" x1="785.71428571429" x2="785.71428571429" y1="0" y2="5" />
              <line class="axe" x1="833.33333333333" x2="833.33333333333" y1="0" y2="5" />
                  <text class="legend" x="880.95238095238" y="30" text-anchor="middle">
    2017
  </text>

        <line class="axe" x1="880.95238095238" x2="880.95238095238" y1="0" y2="5" />
              <line class="axe" x1="928.57142857143" x2="928.57142857143" y1="0" y2="5" />
                  <text class="legend" x="976.19047619048" y="30" text-anchor="middle">
    2019
  </text>

        <line class="axe" x1="976.19047619048" x2="976.19047619048" y1="0" y2="5" />
  </svg>


